<svg version="1.1" id="Layer_1" xmlns="http://www.w3.org/2000/svg" x="0" y="0" viewBox="46 47 381 129" preserveAspectRatio="xMinYMin meet" xml:space="preserve">
    <style></style>
    <linearGradient id="SVGID_1_" gradientUnits="userSpaceOnUse" x1="-54.071" y1="492.366" x2="-53.364" y2="491.659">
        <stop offset="0" stop-color="#1eab4b"></stop>
        <stop offset=".983" stop-color="#19361a"></stop>
    </linearGradient>
    
    <g fill-rule="evenodd" clip-rule="evenodd">
        <path d="M142 140.5l-4.7-6.3c-19.2 19.4-44.1 23.9-58.3 17.9-.5-.2-.7.3.8 1.1.5.2 1.2.6 1.9.9 15.8 7 41.1 5.3 60.3-13.6m-55.6 17.1c-.7-.3-1.1.2.5 1.1.4.2.9.5 1.4.7 20.7 9.4 41.8 6.4 56.8-3.2l-4.6-6.1c-15.7 11.1-37.9 14.3-54.1 7.5m41.6-23.9l-4.6-6.1c-14.6 14.2-33.6 23-46.2 21.6-.6-.1-.6.4.7.7.3.1.9.2 1.3.3 12.7 3.1 31.3-.6 48.8-16.5M90.8 77.1l4.7 6.3c19.2-19.5 44.1-23.9 58.3-17.9.5.2.7-.4-.8-1.1-.5-.2-1.2-.6-1.9-.9-15.8-7-41.1-5.3-60.3 13.6M146.4 60c.7.3 1.1-.2-.5-1.1-.4-.2-.9-.5-1.4-.7-20.7-9.4-41.8-6.4-56.8 3.2l4.6 6.1c15.7-11.1 37.9-14.3 54.1-7.5m8.8 7.7c-.3-.1-1.1-.3-1.6-.4-12.7-2.9-31.3.8-48.8 16.6l4.6 6.1C124 75.8 143 67 155.7 68.3c.6.1.8-.3-.5-.6" fill="#008fd5">
        </path>
        <path d="M140.9 129.4c2.4.1 6.8.1 9.3.1 12.6 0 19.2-5.2 19.2-14.9 0-7.8-5.9-10.5-12-12 4.9-2.1 9.6-5.2 9.6-11.3 0-5.6-4.2-9-11.3-9-3.2 0-8.4.2-11.6.4-3.2.2-6.5.4-9.7.4h-.8l.4.6c1.5 2.3 1.5 5.9 1.5 9.1V111c0 5.4 0 12.7-2.4 17.7l-.3.6h.6c2.5 0 5 .1 7.5.1m2-43.1c1.5-.1 4.1-.3 5.4-.3 6.4 0 10.7 1.1 10.7 6.9 0 8.3-8.7 9.1-14.5 9.1h-1.6V86.3zm0 19.1h.8c9.7 0 17.2.4 17.2 10.4 0 6.9-4.3 10.1-12.3 10.1-4.5 0-5.7-1.3-5.7-9.6v-10.9zm46.7 14.1V87.4h9c5.2 0 8.2-1.3 9.1-3.8l.2-.5h-40.6l2.3 6.2.4-.3c1.7-1.2 3.2-1.5 5-1.5h7.2v32.1c0 3.2 0 6.8-1.6 9.1l-.4.6h11.3l-.4-.6c-1.5-2.4-1.5-6-1.5-9.2m39.3-13.1c1.4 2.3 1.4 5.9 1.4 9.1v3.5c0 2.3 0 4.7-.6 7-1.7.3-3.1.4-4.7.4-12.1 0-18.7-7.5-18.7-21.3 0-9.6 5.6-19.3 16.3-19.3 5.3 0 9 1.5 13.5 5.2l.6.5v-8.9h-.4c-1.1-.1-2.1-.2-3.2-.3-2.3-.2-4.7-.5-7.1-.5-17.3 0-27.6 9.5-27.6 25.4 0 15 8.4 23 24.4 23 4.9 0 10.4-.4 14.5-1.1l.4-.1-.1-.4c-.3-1.8-.5-4.3-.5-6.1v-7.1c0-3.2 0-6.8 1.4-9.1l.4-.6h-10.5l.5.7zM266 82.3c-2.9 0-7 .2-9.8.4-2.8.2-5.8.4-8.7.4h-.8l.4.6c1.5 2.3 1.5 5.9 1.5 9.1v27.1c0 2.7 0 6.5-1.5 8.8l-.4.6h11.7l-.4-.6c-1.7-2.4-1.8-6.4-1.8-9.1V86h6.1c7.7 0 9.4 4.8 9.4 9.4 0 10.1-7.5 10.9-13 11.6l-1 .1.9.6c.2.1.3.2.5.3 1.1.7 3.2 1.3 6.8 1.3 8.6 0 14.4-5.9 14.4-14.6-.3-7.9-5.4-12.4-14.3-12.4m39.1 36.1v-16.7c0-4.2-3.3-6.2-10.1-6.2-6.7 0-13.5 2.1-13.5 6.9 0 1.8 1.2 2.9 3.1 2.9 2.4 0 3.1-1.6 3.8-3.2.8-1.8 1.6-3.7 5.1-3.7 3.6 0 5.3 1.9 5.3 5.9 0 4.1-.7 4.4-4.2 6l-.8.4c-.7.3-1.4.6-2.2 1-5 2.1-11.2 4.8-11.2 10.4 0 5 3.7 8.3 9.5 8.3 5.3 0 7-2.3 8.9-5.1l.1-.1c.1.2.2.9.3 1.5.1.7.3 1.6.5 2.6l.1.3 7.7-.5-.5-.6c-2-2.5-1.9-6.3-1.9-10.1m-6.3-.3c0 3.7-1.9 7.5-6.2 7.5-3.3 0-5.3-1.7-5.3-4.7 0-3.8 2.7-5.1 8.1-7.7l3.4-1.6v6.5zm27.8 7.5c-8.6 0-10.4-6.9-10.4-12.7 0-7 3-14 9.7-14 3.2 0 5.2.8 7 4.2l.1.2h1V97c0-1.1-5.6-1.4-7.2-1.4-10.7 0-18.1 7.6-18.1 18.5 0 9.6 6.2 16.4 15.1 16.4 5.4 0 11.1-2.3 11.1-6.5v-2.2l-.7.7c-1.7 1.9-4.7 3.1-7.6 3.1m21.5-.1c-2.4 0-2.9-1.4-2.9-3.9v-21.4h.8c2.7 0 5.8-.7 5.8-2.5 0-.9-.8-.9-1.1-.9h-5.6V86.5l-6 1.6-.3 34.5c0 5.1 2.4 7.8 7 7.8 2.7 0 8-2.4 8.1-3.5l.4-4.2-.8.8c-.5.7-4.1 2-5.4 2m34-3.7V95.5l-8.6 1.4.9.6c1.4.9 1.4 2.1 1.4 4.5v12.2c0 5.6-.5 11.5-6.5 11.5-5.4 0-6.1-4.4-6.1-9.1V97.5c0-.7 0-2-1.5-2-.7 0-2.2.3-3.8.5-.8.1-1.5.2-2.2.3l-1.1.1.9.6c1.4.9 1.4 2.1 1.4 4.5v18.8c0 6 3.7 9.9 9.4 9.9 5 0 7.9-2.7 9.2-3.9l.3-.3v3.5l8.3-.5-.7-.7c-1.3-1-1.3-3.7-1.3-6.5m28.9-3.4v-16.7c0-4.2-3.3-6.2-10.1-6.2-6.7 0-13.5 2.1-13.5 6.9 0 1.8 1.2 2.9 3.1 2.9 2.4 0 3.1-1.6 3.8-3.2.8-1.8 1.6-3.7 5.1-3.7 3.6 0 5.3 1.9 5.3 5.9 0 4.1-.7 4.4-4.2 6l-.8.4c-.7.3-1.4.6-2.2 1-5 2.1-11.2 4.8-11.2 10.4 0 5 3.7 8.3 9.5 8.3 5.3 0 7-2.3 8.9-5.1l.1-.1c.1.2.2.9.3 1.5.1.7.3 1.6.5 2.6l.1.3 7.7-.5-.5-.6c-2-2.5-2-6.3-1.9-10.1m-6.3-.3c0 3.7-1.9 7.5-6.2 7.5-3.3 0-5.2-1.7-5.2-4.7 0-3.8 2.7-5.1 8.1-7.7l3.4-1.6v6.5zm12 11.2h9.6l-.4-.6c-1.3-1.9-1.3-4.8-1.3-7.5l-.1-38.1-8.8 1.4.8.6c1.7 1.3 1.7 4 1.7 6.8l.1 29.4c0 2.6 0 5.6-1.3 7.5l-.3.5zm-248.3 5.9c-6.1 11.8-14.9 21-27.2 27.1-29.5 14.4-65.9 2.4-80.3-27-14.4-29.5-.7-65.2 28.8-79.6 8.1-4 16.7-5.9 25.2-6 3.1 0 7 .4 10.6 1 1 .1 1-.5.1-.7-3.5-.8-7.3-1.5-10.6-1.7-10.7-.7-21.7 1.3-32 6.3-31.6 15.3-44.7 53.4-29.3 84.8 15.4 31.5 53.4 44.5 84.9 29.1 14.6-7.2 25.6-19.3 31.3-33.2 1.8-4.3 1.9-6.3 2-6.7-.1-2.3-2 3.8-3.5 6.6" fill="#00467d">
        </path>
    </g>
</svg>