<!-- blue #2196f3 -->
<!-- orange #ff9900 -->
<svg xmlns="http://www.w3.org/2000/svg" xmlns:xlink="http://www.w3.org/1999/xlink" width="90.836" height="43.794" viewBox="0 0 90.836 43.794">
  <defs>
    <clipPath id="clip-path">
      <path id="Path_132" data-name="Path 132" d="M397.178,511.105H466.7a4.934,4.934,0,0,1,5,4.866v26.558a4.934,4.934,0,0,1-5,4.866h-69.52a4.934,4.934,0,0,1-5-4.866V515.971A4.934,4.934,0,0,1,397.178,511.105Z" transform="translate(-392.178 -511.105)" fill="none"/>
    </clipPath>
  </defs>
  <g transform="translate(-371 -497.04)">
    <path id="Path_129" data-name="Path 129" d="M655.149,519.574a2.459,2.459,0,0,1,2.266-2.29v-1.465a2.3,2.3,0,0,1,0-4.591v-1.461a2.3,2.3,0,0,1,0-4.591L657.4,502.8c-2.622,0-5.266-2.437-5.266-4.947H638.179v43.358h13.956c0-2.4,2.645-4.857,5.281-4.856v-2.37a2.3,2.3,0,0,1,0-4.591V527.92a2.3,2.3,0,0,1,0-4.591v-1.477A2.416,2.416,0,0,1,655.149,519.574Z" transform="translate(-195.798 -0.598)" fill="#666"/>
    <path id="Path_130" data-name="Path 130" d="M456.336,540.834H376.562l-.218-.218a4.456,4.456,0,0,0-1.581-3.168,5.357,5.357,0,0,0-3.543-1.47h0L371,535.76v-2.37l.209-.218a2.078,2.078,0,0,0,0-4.155L371,528.8v-1.477l.209-.218a2.078,2.078,0,0,0,0-4.155l-.209-.218v-1.477l.2-.217a2.067,2.067,0,0,0,.005-4.133l-.206-.218v-1.465l.21-.218a2.078,2.078,0,0,0,0-4.155l-.21-.218v-1.477l.21-.218a2.078,2.078,0,0,0,0-4.156l-.21-.218V502.2l.218-.218h0a5.322,5.322,0,0,0,3.543-1.474,4.567,4.567,0,0,0,1.582-3.254l.218-.218h79.774l.218.218c0,2.386,2.5,4.729,5.048,4.729l.218.217.014,2.374-.21.219a2.078,2.078,0,0,0,0,4.155l.21.218v1.461l-.21.218a2.078,2.078,0,0,0,0,4.155l.21.218v1.465l-.194.216a2.239,2.239,0,0,0-2.072,2.073,2.2,2.2,0,0,0,2.07,2.061l.2.217v1.477l-.209.218a2.078,2.078,0,0,0,0,4.156l.209.218V528.8l-.209.218a2.078,2.078,0,0,0,0,4.155l.209.218v2.37l-.218.218h0a5.265,5.265,0,0,0-3.479,1.469,4.475,4.475,0,0,0-1.582,3.169Zm-79.563-.436h79.352a5.011,5.011,0,0,1,1.715-3.271,5.774,5.774,0,0,1,3.558-1.579V533.59a2.51,2.51,0,0,1,0-4.992v-1.075a2.51,2.51,0,0,1,0-4.992v-1.085a2.62,2.62,0,0,1-2.266-2.469A2.649,2.649,0,0,1,461.4,516.5v-1.075a2.509,2.509,0,0,1,0-4.994V509.37a2.509,2.509,0,0,1,0-4.994l-.012-1.959a5.749,5.749,0,0,1-5.262-4.941H376.774a5.083,5.083,0,0,1-1.715,3.356,5.815,5.815,0,0,1-3.623,1.585v1.944a2.509,2.509,0,0,1,0,4.994v1.073a2.509,2.509,0,0,1,0,4.994v1.065a2.557,2.557,0,0,1,2.266,2.488,2.523,2.523,0,0,1-2.266,2.473v1.082a2.51,2.51,0,0,1,0,4.992V528.6a2.51,2.51,0,0,1,0,4.992v1.956a5.857,5.857,0,0,1,3.622,1.579A4.988,4.988,0,0,1,376.773,540.4Z" transform="translate(0 0)" fill="#fff"/>
    <g id="g5576-51-8" transform="translate(375.989 500.662)">
      <path id="Path_131" data-name="Path 131" d="M465.152,547.156h-70.1a5.386,5.386,0,0,1-5.38-5.38v-25.8a5.386,5.386,0,0,1,5.38-5.38h70.1a5.386,5.386,0,0,1,5.38,5.38v25.8A5.386,5.386,0,0,1,465.152,547.156Zm-70.1-35.252a4.077,4.077,0,0,0-4.073,4.073v25.8a4.077,4.077,0,0,0,4.073,4.073h70.1a4.078,4.078,0,0,0,4.073-4.073v-25.8a4.077,4.077,0,0,0-4.073-4.073Z" transform="translate(-389.675 -510.597)" fill="#fff"/>
    </g>
    
    <g id="g4127-21-0-33-5" transform="translate(380.799 507.966)">
      <g id="a3814-2-4-8-9-1" transform="translate(0 0.008)">
        <g id="text3022-4-9-8-7-0">
          <path id="path4073-9-1-2-3" d="M412.826,559.8a4,4,0,0,1-3.819-1.9,9.163,9.163,0,0,1-1.331-5.405v-6.979a15.261,15.261,0,0,1,.289-3.186,6.659,6.659,0,0,1,.971-2.346,4.153,4.153,0,0,1,1.877-1.512,5.44,5.44,0,0,1,2.5-.508q3.163,0,4.539,1.557a6.968,6.968,0,0,1,1.376,4.724v.986l-3.482,0v-1.051q0-.711-.032-1.163a4.893,4.893,0,0,0-.154-.911,1.621,1.621,0,0,0-.353-.7,1.7,1.7,0,0,0-.63-.4,2.706,2.706,0,0,0-.977-.155,4.017,4.017,0,0,0-.974.11,2.154,2.154,0,0,0-.572.271,1.3,1.3,0,0,0-.392.459,3.094,3.094,0,0,0-.244.575,3.95,3.95,0,0,0-.129.717q-.045.44-.058.776t-.013.866v8.646a6.362,6.362,0,0,0,.476,2.837,1.86,1.86,0,0,0,1.813.9,1.823,1.823,0,0,0,1.026-.265,1.8,1.8,0,0,0,.733-.8,4.285,4.285,0,0,0,.373-1.228,10.917,10.917,0,0,0,.109-1.674v-2.148h-2.3v-2.13h5.8V559.8h-2.52l-.283-2.456a3.576,3.576,0,0,1-3.613,2.456Z" transform="translate(-407.676 -537.966)" fill="#fff"/>
        </g>
      </g>
      <path id="path4054-0-5-3-9" d="M463.446,579.746a5.7,5.7,0,0,1-1.732-.235,3.269,3.269,0,0,1-1.205-.66,3.048,3.048,0,0,1-.756-1.09,5.758,5.758,0,0,1-.4-1.438,12.6,12.6,0,0,1-.112-1.795v-9.345h2.636v9.626q0,.525.027.9a5.411,5.411,0,0,0,.117.778,1.873,1.873,0,0,0,.256.651,1.32,1.32,0,0,0,.459.407,1.613,1.613,0,0,0,1.412,0,1.236,1.236,0,0,0,.45-.407,2.073,2.073,0,0,0,.252-.651,4.754,4.754,0,0,0,.117-.773q.022-.366.022-.9v-9.626h2.636v9.345a12.632,12.632,0,0,1-.112,1.795,5.768,5.768,0,0,1-.4,1.438,3.076,3.076,0,0,1-.751,1.09,3.221,3.221,0,0,1-1.2.66,5.654,5.654,0,0,1-1.723.235Z" transform="translate(-445.468 -557.904)" fill="#fff"/>
      <path id="path4056-3-2-3-5" d="M498.911,579.747V565.183h2.681v14.564Z" transform="translate(-474.536 -557.904)" fill="#fff"/>
      <path id="path4058-0-3-04-8" d="M521.346,579.745a5.413,5.413,0,0,1-1.7-.244,3.378,3.378,0,0,1-1.219-.678,3.333,3.333,0,0,1-.783-1.076,5.226,5.226,0,0,1-.423-1.379,10.271,10.271,0,0,1-.122-1.659v-4.444a10.63,10.63,0,0,1,.126-1.732,5.529,5.529,0,0,1,.423-1.4,3.077,3.077,0,0,1,.778-1.062,3.437,3.437,0,0,1,1.215-.651,5.6,5.6,0,0,1,1.7-.235,5.422,5.422,0,0,1,1.907.3,2.822,2.822,0,0,1,1.25.877,3.678,3.678,0,0,1,.666,1.352,7.009,7.009,0,0,1,.207,1.8V570.8h-2.618v-1.275a6.268,6.268,0,0,0-.117-1.51,1.137,1.137,0,0,0-1.142-.814h-.144a1.983,1.983,0,0,0-.6.081.941.941,0,0,0-.418.258,1.625,1.625,0,0,0-.261.375,1.8,1.8,0,0,0-.149.52,5.876,5.876,0,0,0-.063.592q-.013.271-.013.687v5.566a3.941,3.941,0,0,0,.328,1.881,1.244,1.244,0,0,0,1.174.561,1.735,1.735,0,0,0,.508-.068,1.306,1.306,0,0,0,.369-.172.829.829,0,0,0,.252-.3,1.826,1.826,0,0,0,.238-.827q.027-.3.031-.506t0-.57V573.94h2.618v1.23a8.818,8.818,0,0,1-.117,1.51,4.774,4.774,0,0,1-.4,1.257,2.982,2.982,0,0,1-.733.977,3.216,3.216,0,0,1-1.151.61A5.416,5.416,0,0,1,521.346,579.745Z" transform="translate(-487.866 -557.903)" fill="#fff"/>
      <path id="path4060-3-2-8-9" d="M556.227,579.747V565.183h2.717v5.656h3.032v-5.656h2.717v14.564h-2.717V573.94h-3.032v5.807Z" transform="translate(-516.539 -557.904)" fill="#fff"/>
      <g id="a4124-5-4-4-6" transform="translate(50.332 0.008)">
        <path id="path4078-0-6-3-2" d="M596.461,540.763l1.941-2.8h2.679l1.972,2.8H600.86l-1.108-1.4-1.107,1.4Zm-.39,19.039V542.979h7.321v2.259h-4.135V549.8h3.27v2.13h-3.27v5.656h4.134V559.8Z" transform="translate(-596.071 -537.966)" fill="#fff"/>
      </g>
      <path id="rect6496-8-7-6-9-5" d="M459.239,537.936v5.019h.656v-5.019Zm1.227,0v5.019h.644v-5.019Zm1.263,0v5.019h.656v-5.019Zm2.186,0v5.019h1.373v-5.019Zm2.2,0v5.019h1.373v-5.019Zm2.065,0v5.019h1.373v-5.019Zm2.794,0v5.019h.656v-5.019Zm1.336,0v5.019h.656v-5.019Zm1.275,0v5.019h.656v-5.019Zm1.154,0v5.019h1.372v-5.019Zm1.907,0v5.019h.656v-5.019Zm1.287,0v5.019h1.373v-5.019Zm2.15,0v5.019h.644v-5.019Zm2.041,0v5.019H483.5v-5.019Zm2.186,0v5.019h.644v-5.019Zm1.178,0v5.019h1.372v-5.019Zm2.1,0v5.019h1.373v-5.019Zm2.077,0v5.019h.656v-5.019Zm2.065,0v5.019h.644v-5.019Zm1.227,0v5.019h.656v-5.019Z" transform="translate(-445.463 -537.936)" fill="#fff"/>
    </g>

    <g id="Group_18" data-name="Group 18" transform="translate(376.658 500.798)">
      <g id="Group_17" data-name="Group 17" clip-path="url(#clip-path)">
        <path id="rect6184-2-0-5-7-1-0-2" d="M638.355,487.232v55.084h24.481V487.232Zm9.913,10.005h.925v3.095h-7.34v-1.337h6.415Zm.925,3.812v1.244l-1.7.3v1.27l1.7.3v1.262l-7.34-1.492v-1.394Zm-2.577,1.687-3.014.492,3.014.491Zm-4.763,3.356h4.874a5.938,5.938,0,0,1,.881.057,2.727,2.727,0,0,1,.7.194,1.486,1.486,0,0,1,.531.368,1.584,1.584,0,0,1,.324.593,2.781,2.781,0,0,1,.115.846,2.84,2.84,0,0,1-.115.854,1.635,1.635,0,0,1-.324.593,1.531,1.531,0,0,1-.531.371,2.984,2.984,0,0,1-.7.2,6.427,6.427,0,0,1-.881.053h-4.874v-1.3h5.012c.171,0,.317,0,.438-.013a2.631,2.631,0,0,0,.381-.058.944.944,0,0,0,.319-.124.678.678,0,0,0,.2-.226.718.718,0,0,0,.079-.349.7.7,0,0,0-.079-.346.584.584,0,0,0-.2-.221.954.954,0,0,0-.319-.124,2.02,2.02,0,0,0-.376-.057c-.121-.009-.268-.014-.442-.014h-5.012v-1.3Zm0,4.648h.987v1.191h6.353v1.337h-6.353V514.5h-.987Zm7.34,4.126v1.341l-3.352.877v.593h3.352v1.337h-7.34v-1.682a4.424,4.424,0,0,1,.1-1,1.886,1.886,0,0,1,.319-.721,1.311,1.311,0,0,1,.606-.461,2.49,2.49,0,0,1,.935-.154,2.641,2.641,0,0,1,1.128.207,1.25,1.25,0,0,1,.637.678Zm-5.322,1.394a1.29,1.29,0,0,0-.841.217,1.008,1.008,0,0,0-.257.8v.4h2.213v-.324a1.15,1.15,0,0,0-.252-.841A1.2,1.2,0,0,0,643.872,516.26Zm-2.018,3.891h7.34v1.32h-7.34Zm0,2.116,7.34,1.5v1.292l-7.34,1.488v-1.186l5.109-.965-5.109-.912Z" transform="translate(-572.585 -493.61)" fill="#fff"/>
      </g>
    </g>
    <path id="rect6208-3-4-3-2-7" d="M636.507,497.866v1.4H637v-1.4Zm0,2.795v1.4H637v-1.4Zm0,2.806v1.4H637v-1.4Zm0,2.806v1.375H637v-1.375Zm0,2.795v1.375H637v-1.375Zm0,2.783v1.4H637v-1.4Zm0,2.795v1.4H637v-1.4Zm0,2.795v1.4H637v-1.4Zm0,2.806v1.375H637v-1.375Zm0,2.795v1.375H637v-1.375Zm0,2.795v1.4H637v-1.4Zm.011,2.795v1.4h.492v-1.4Zm0,2.795v1.386H637v-1.386Zm0,2.795v1.386H637v-1.386Zm0,2.806v1.386H637v-1.386Zm0,2.795v1.4h.492v-1.4Z" transform="translate(-194.573 -0.605)" fill="#fff"/>
    <path id="Path_133" data-name="Path 133" d="M456.554,540.834h-80.21v-.218a4.456,4.456,0,0,0-1.581-3.168,5.357,5.357,0,0,0-3.543-1.47H371v-2.8l.209-.009a2.078,2.078,0,0,0,0-4.155l-.209-.009v-1.895l.209-.009a2.078,2.078,0,0,0,0-4.155L371,522.94v-1.887l.2-.016a2.067,2.067,0,0,0,.005-4.133l-.206-.012v-1.881l.21-.008a2.078,2.078,0,0,0,0-4.155l-.21-.008v-1.9l.21-.008a2.078,2.078,0,0,0,0-4.156l-.21-.008v-2.786h.22a5.322,5.322,0,0,0,3.543-1.474,4.567,4.567,0,0,0,1.582-3.254v-.218h80.21v.218c0,2.386,2.5,4.729,5.048,4.729h.217l.017,2.8-.211.008a2.078,2.078,0,0,0,0,4.155l.21.008v1.881l-.21.008a2.078,2.078,0,0,0,0,4.155l.21.008v1.87l-.194.021a2.239,2.239,0,0,0-2.072,2.073,2.2,2.2,0,0,0,2.07,2.061l.2.019v1.883l-.209.009a2.078,2.078,0,0,0,0,4.156l.209.009v1.895l-.209.009a2.078,2.078,0,0,0,0,4.155l.209.009v2.8h-.22a5.265,5.265,0,0,0-3.479,1.469,4.475,4.475,0,0,0-1.582,3.169Zm-79.781-.436h79.352a5.011,5.011,0,0,1,1.715-3.271,5.774,5.774,0,0,1,3.558-1.579V533.59a2.51,2.51,0,0,1,0-4.992v-1.075a2.51,2.51,0,0,1,0-4.992v-1.085a2.62,2.62,0,0,1-2.266-2.469A2.649,2.649,0,0,1,461.4,516.5v-1.075a2.509,2.509,0,0,1,0-4.994V509.37a2.509,2.509,0,0,1,0-4.994l-.012-1.959a5.749,5.749,0,0,1-5.262-4.941H376.774a5.083,5.083,0,0,1-1.715,3.356,5.815,5.815,0,0,1-3.623,1.585v1.944a2.509,2.509,0,0,1,0,4.994v1.073a2.509,2.509,0,0,1,0,4.994v1.065a2.557,2.557,0,0,1,2.266,2.488,2.523,2.523,0,0,1-2.266,2.473v1.082a2.51,2.51,0,0,1,0,4.992V528.6a2.51,2.51,0,0,1,0,4.992v1.956a5.857,5.857,0,0,1,3.622,1.579A4.988,4.988,0,0,1,376.773,540.4Z" transform="translate(0 0)" fill="#fff" opacity="0"/>
  </g>
</svg>